<?xml version="1.0" encoding="utf-8"?>
<!-- Generator: Adobe Illustrator 24.0.2, SVG Export Plug-In . SVG Version: 6.00 Build 0)  -->
<svg version="1.1" id="Layer_1" xmlns="http://www.w3.org/2000/svg" xmlns:xlink="http://www.w3.org/1999/xlink" x="0px" y="0px"
	 viewBox="0 0 32 32" style="enable-background:new 0 0 32 32;" xml:space="preserve">
<style type="text/css">
	.st0{fill:#FFFFFF;}
	.st1{fill:#2563EB;}
</style>
<g>
	<circle class="st0" cx="16" cy="16" r="16"/>
	<g>
		<path d="M9.19,12.95c-0.44,0.47-0.69,1.13-0.74,1.98l6.72-0.02v2.01H8.44c0,0.41,0.05,0.8,0.14,1.17
			c0.09,0.38,0.28,0.72,0.55,1.03c0.25,0.29,0.54,0.47,0.88,0.54c0.34,0.07,0.68,0.1,1.04,0.1c0.02,0,0.05,0,0.07,0
			c0.03,0,0.05,0,0.07,0l3.99-0.02v2.01h-4.1c-0.65,0-1.28-0.06-1.89-0.18c-0.61-0.12-1.18-0.39-1.71-0.82
			c-0.64-0.53-1.09-1.17-1.35-1.92s-0.4-1.53-0.42-2.32c-0.01-0.17-0.01-0.34-0.01-0.5c0.01-0.16,0.01-0.32,0.02-0.48
			c0.12-1.82,0.61-3.16,1.49-4.02c0.87-0.86,2.18-1.29,3.93-1.29l4.03-0.02v2.01h-3.99C10.3,12.25,9.63,12.49,9.19,12.95z"/>
		<path d="M16.34,12.26v-2.01h9.96v2.01h-3.74v9.51h-2.51v-9.51H16.34z"/>
	</g>
</g>
</svg>
