<svg fill="#fff" width="800" height="800" viewBox="-3.2 -3.2 38.4 38.4" xmlns="http://www.w3.org/2000/svg" stroke="#fff" stroke-width="0"><path d="m27.472 25.67 3.511 2.664c.764-1.983.2-4.311-1.579-5.661a4.9 4.9 0 0 0-4.61-.713l-.532-.403-.07-.132c.37-.526.691-1.076.961-1.644l2.417-.067.495-1.58-1.953-1.438a11.38 11.38 0 0 0 .143-1.786l2.167-1.1-.229-1.64-2.392-.468c-.2-.688-.466-1.362-.798-2.011l1.426-1.973-.954-1.354-2.347.682-.088-.093a11.488 11.488 0 0 0-1.184-1.066l.451-2.321-1.435-.827-1.781 1.551a11.408 11.408 0 0 0-1.769-.549l-.584-2.291-1.651-.135-.951 2.172c-.492.03-.982.091-1.468.185l-1.454-1.877-1.568.533-.008 2.39c-.664.342-1.303.753-1.904 1.236l-2.215-.998-1.134 1.207 1.134 2.151a11.239 11.239 0 0 0-.951 1.63l-2.433.067-.495 1.58 1.966 1.448a11.436 11.436 0 0 0-.144 1.772l-2.18 1.106.229 1.64 2.394.468c.143.498.319.989.531 1.468l-1.58 1.959.881 1.402 2.453-.573a11.45 11.45 0 0 0 1.589 1.54l-.477 2.459 1.435.827 1.873-1.632c.538.216 1.089.389 1.649.519l.612 2.401 1.651.135.991-2.263a11.503 11.503 0 0 0 2.041-.308l1.576 1.825 1.538-.616-.083-1.685.974.739c-.115 1.597.543 3.233 1.909 4.271 1.778 1.349 4.172 1.266 5.877-.004l-3.51-2.663c-.619-.469-.762-1.358-.312-1.952s1.328-.672 1.946-.202zm-13.627-1.934a8.842 8.842 0 0 1-5.388-2.669C5.036 17.529 5.134 11.9 8.673 8.48s9.17-3.36 12.59.178c3.012 3.115 3.293 7.878.903 11.308l-5.822-4.417a4.903 4.903 0 0 0-1.928-4.247c-1.778-1.349-4.172-1.266-5.877.004l3.51 2.663c.618.469.78 1.334.33 1.929s-1.346.696-1.964.226l-3.51-2.663c-.763 1.983-.2 4.311 1.579 5.661 1.367 1.036 3.121 1.229 4.628.688l4.617 3.503a8.926 8.926 0 0 1-3.883.422z" stroke="none"/></svg>