<svg width="800" height="800" viewBox="0 0 64 64" data-name="Layer 1" id="Layer_1" xmlns="http://www.w3.org/2000/svg"><defs><style>.cls-4{fill:#a3cef1}.cls-5{fill:#dda15e}.cls-6{fill:#6096ba}.cls-7{fill:#274c77}</style></defs><path class="cls-7" transform="rotate(-45 45.085 18.915)" d="M39.48 17.92h11.21v2H39.48z"/><path class="cls-7" transform="rotate(-10.3 55.017 22.52)" d="M54 16.91h2v11.18h-2z"/><path class="cls-7" transform="rotate(-79.7 41.496 9.002)" d="M40.5 3.41h2v11.18h-2z"/><path class="cls-5" d="m24.58 41.04-3 1.29c-1.01.43-2.15.43-3.15 0l-3-1.29a4.002 4.002 0 0 1-2.42-3.68V32c0-3.31 2.69-6 6-6h2c3.31 0 6 2.69 6 6v5.36c0 1.6-.95 3.05-2.42 3.68Z"/><path class="cls-7" d="M33.14 47c-1.82-1.85-4.35-3-7.14-3h-3c0 1.66-1.34 3-3 3s-3-1.34-3-3h-3C8.48 44 4 48.48 4 54v7h22l4-14h3.14Z"/><path class="cls-5" d="M15 57h2c1.1 0 2 .9 2 2v2h-4v-4Z"/><path class="cls-7" d="M10 33.73c-.29.17-.64.27-1 .27-1.1 0-2-.9-2-2s.9-2 2-2c.42 0 .81.13 1.14.36M30 33.73c.29.17.64.27 1 .27 1.1 0 2-.9 2-2s-.9-2-2-2c-.42 0-.81.13-1.14.36"/><path class="cls-6" d="M20 61h-2v-2c0-.55-.45-1-1-1h-7c-.55 0-1-.45-1-1v-4c0-.27.11-.52.29-.71L10.58 51a.996.996 0 1 1 1.41 1.41l-1 1V56h6c1.66 0 3 1.34 3 3v2Z"/><path d="m17 41.71 1.42.61c1.01.44 2.15.44 3.16 0l1.42-.61V44c0 1.66-1.34 3-3 3s-3-1.34-3-3v-2.29Z" style="fill:#bc6c25"/><path style="fill:#8b8c89" d="m26 61 4-14h22l-4 14"/><path class="cls-4" d="M2 60h50v2H2z"/><path class="cls-7" d="M26.4 29.38h-.01c-.57-.23-1.23-.38-2.06-.38-4.33 0-4.33 4-8.67 4-1.13 0-1.97-.27-2.66-.67V32c0-3.31 2.69-6 6-6h2a5.99 5.99 0 0 1 5.39 3.38h.01Z"/><path d="M27 36.6V32c0-3.31-2.69-6-6-6h-2c-3.31 0-6 2.69-6 6v4h-2c-.55 0-1-.45-1-1v-3c0-5.52 4.48-10 10-10 2.76 0 5.26 1.12 7.07 2.93S30 29.24 30 32v3.18c0 .48-.34.89-.8.98l-2.2.44Z" style="fill:#e7ecef"/><path class="cls-6" d="M20 38c-.11-.54.24-1.07.78-1.18L29 35.18v-2.86c0-4.79-3.61-8.98-8.38-9.3C15.38 22.67 11 26.83 11 32v3h2v2h-2c-1.1 0-2-.9-2-2v-2.68c0-5.72 4.24-10.74 9.94-11.27C25.48 20.43 31 25.58 31 32v3.18a2 2 0 0 1-1.61 1.96l-8.22 1.64c-.54.11-1.07-.24-1.18-.78Z"/><circle class="cls-6" cx="31" cy="8" r="5"/><circle class="cls-6" cx="56" cy="33" r="5"/><path class="cls-4" d="M31 14c-3.31 0-6-2.69-6-6s2.69-6 6-6 6 2.69 6 6-2.69 6-6 6Zm0-10c-2.21 0-4 1.79-4 4s1.79 4 4 4 4-1.79 4-4-1.79-4-4-4ZM56 39c-3.31 0-6-2.69-6-6s2.69-6 6-6 6 2.69 6 6-2.69 6-6 6Zm0-10c-2.21 0-4 1.79-4 4s1.79 4 4 4 4-1.79 4-4-1.79-4-4-4Z"/><circle class="cls-4" cx="54" cy="10" r="7"/><circle class="cls-4" cx="39" cy="25" r="3"/><path class="cls-6" d="M54 18c-4.41 0-8-3.59-8-8s3.59-8 8-8 8 3.59 8 8-3.59 8-8 8Zm0-14c-3.31 0-6 2.69-6 6s2.69 6 6 6 6-2.69 6-6-2.69-6-6-6ZM39 29c-2.21 0-4-1.79-4-4s1.79-4 4-4 4 1.79 4 4-1.79 4-4 4Zm0-6c-1.1 0-2 .9-2 2s.9 2 2 2 2-.9 2-2-.9-2-2-2Z"/><path class="cls-4" d="M39 53c.55 0 1 .45 1 1s-.45 1-1 1v-2Z"/></svg>