<?xml version="1.0" encoding="utf-8"?>
<!-- Generator: Adobe Illustrator 24.0.2, SVG Export Plug-In . SVG Version: 6.00 Build 0)  -->
<svg version="1.1" id="Layer_1" xmlns="http://www.w3.org/2000/svg" xmlns:xlink="http://www.w3.org/1999/xlink" x="0px" y="0px"
	 viewBox="0 0 1418 441.24" style="enable-background:new 0 0 1418 441.24;" xml:space="preserve">
<style type="text/css">
	.st0{fill:#FFFFFF;}
	.st1{fill:#2563EB;}
</style>
<g>
	<g>
		<g>
			<path d="M816.13,88.16C788.46-9.3,584.01-28.95,359.54,44.24c-60.04,19.58-115.37,43.78-163.78,70.66l30.27-0.07v32.94h-65.45
				c-14.59,0.22-25.5,4.12-32.73,11.78c-7.22,7.66-11.27,18.5-12.14,32.58l110.32-0.29v33.02H115.43c0,6.65,0.72,13.08,2.24,19.22
				c1.52,6.21,4.55,11.85,9.1,16.91c4.05,4.77,8.89,7.73,14.38,8.89c5.56,1.16,11.2,1.66,17.05,1.66h2.38l65.45-0.22v32.94H158.7
				c-10.69,0-21.1-0.94-30.99-2.89c-9.97-1.95-19.29-6.43-28.1-13.44c-10.55-8.6-17.99-19.15-22.18-31.57
				c-4.19-12.35-6.5-25.07-6.86-38.07c-0.14-2.82-0.22-5.56-0.14-8.24c0.07-1.95,0.22-3.83,0.29-5.78
				C16.96,255.7-9.48,308.65,3.09,353.08c27.67,97.46,232.12,117.11,456.66,43.92c91.53-29.84,172.23-70.44,233.93-114.8V148.05
				H632.7v-33.02h163.63v33.02h-61.55v101.58C797.78,194.36,829.78,136.28,816.13,88.16z M382.01,304.25h-98.76
				c-14.23,0-25.14-3.9-32.73-11.7c-7.51-7.87-10.98-18.71-10.26-32.58c1.23-16.76,7.08-27.53,17.7-32.51
				c10.55-4.91,23.12-7.37,37.71-7.37l48.26-0.29c0.58-11.41-2.38-18.57-8.81-21.31c-6.43-2.82-14.52-4.26-24.42-4.26l-61.19-0.29
				v-28.75h75.21c8.09,0.22,15.89,1.16,23.33,2.82c7.51,1.66,14.23,5.49,20.23,11.49c5.06,4.91,8.6,10.69,10.62,17.41
				c2.02,6.65,3.11,13.51,3.11,20.59V304.25z M637.47,165.17v29.04h-38.8v54.91c-0.22,13.87,2.96,21.96,9.46,24.27
				c6.5,2.31,15.46,3.4,26.95,3.4h2.38v27.45h-33.52c-13.94,0-24.42-3.83-31.43-11.56c-7.08-7.8-10.55-18.35-10.55-31.71v-66.75
				H462.2c-0.51,0.22-1.01,0.29-1.44,0.29h-8.89c-3.11,0.14-6.14,0.87-9.1,2.1c-2.89,1.23-4.77,3.54-5.63,6.86
				c-1.44,6.14-0.14,10.4,3.68,12.64c3.9,2.31,8.38,3.47,13.44,3.47l33.3-0.29c13,0.22,23.91,3.25,32.73,9.1
				c8.74,5.92,13.44,16.04,13.94,30.49v0.79c0.22,11.27-3.03,21.53-9.61,30.78c-6.57,9.18-16.04,13.8-28.39,13.8h-94.71v-28.97h77.3
				c0.36,0.14,0.72,0.22,1.08,0.22h1.01c4.41-0.14,8.45-1.16,12.14-2.89c3.76-1.73,5.56-5.35,5.56-10.84
				c0-5.06-1.73-8.53-5.27-10.26c-3.54-1.81-7.3-2.82-11.34-3.18h-3.18l-31.64-0.29c-14.81,0.22-26.44-1.81-34.97-6.07
				c-8.52-4.19-12.93-14.95-13.08-32.15c-0.22-16.18,4.19-27.67,13.22-34.32c8.96-6.72,20.88-10.04,35.83-10.04l87.92-0.14v-0.14
				h25.86v-50.35h36.7v50.35H637.47z"/>
			<path d="M299.9,247.8c-0.36,0-0.71,0-1.05,0c-4.93,0.18-9.5,1.1-13.73,2.77c-4.22,1.67-6.42,5.59-6.6,11.74
				c-0.35,6.86,1.54,10.91,5.68,12.14c4.13,1.23,8.84,1.94,14.12,2.11v-0.26h45.92v-28.76h-43.28
				C300.6,247.71,300.25,247.8,299.9,247.8z"/>
			<path d="M903.11,168.79l13.8,18.57v-18.57H903.11z M903.11,168.79l13.8,18.57v-18.57H903.11z"/>
			<path d="M1008.22,235.69l50.64,68.56h-41.4l-94.42-127.22l-6.14-8.24h-13.8l6.14,8.24l7.66,10.33v6.86h-48.55
				c-10.19,0.22-18.42,1.73-24.56,4.62c-3.83,1.81-6.5,5.27-8.09,10.4c-0.94,3.18-1.52,6.94-1.66,11.34l82.86-0.22v29.04h-82.86
				c0.14,4.7,0.65,8.6,1.59,11.85c1.52,5.27,4.05,8.67,7.66,10.26c5.78,2.67,14.09,3.97,24.78,3.97l48.84-0.22v26.15l31.93-43.35
				l6.79-9.25l21.31,28.61l-19.65,26.8h-93.99c-9.83,0-19.36-1.16-28.61-3.54c-9.25-2.38-17.34-7.37-24.42-14.88
				c-5.63-6.21-9.68-13.22-12.28-21.17c-2.53-7.88-4.05-15.97-4.62-24.27v-8.81c0-1.16,0.14-2.31,0.29-3.54
				c0.51-7.95,2.1-15.75,4.62-23.41c1.95-5.85,4.77-11.2,8.31-16.04c0.07,0,0.14-0.07,0.22-0.14c1.01-1.44,2.24-2.89,3.47-4.26
				c7.08-7.73,15.17-12.79,24.42-15.17c9.25-2.38,18.78-3.54,28.61-3.54l51-0.29h42.7l28.25,39.73l1.59,2.24l68.13-93.41l8.67-11.85
				h42.26L1008.22,235.69z"/>
			<path d="M1197.58,196.89c-2.02-6.72-5.64-12.5-10.69-17.41c-6-6-12.72-9.83-20.23-11.49c-7.44-1.66-15.24-2.6-23.33-2.82h-75.21
				v28.75l61.19,0.29c9.9,0,17.99,1.44,24.42,4.26c6.43,2.75,9.39,9.9,8.89,21.31l-48.33,0.29c-14.59,0-27.16,2.46-37.71,7.37
				c-10.55,4.98-16.47,15.75-17.7,32.51c-0.72,13.87,2.75,24.71,10.33,32.58c7.51,7.8,18.42,11.7,32.73,11.7h98.69v-86.77
				C1200.62,210.4,1199.6,203.54,1197.58,196.89z M1162.83,276.29h-45.88v0.29c-5.27-0.22-9.97-0.87-14.16-2.1
				c-4.12-1.23-6-5.27-5.64-12.14c0.14-6.21,2.38-10.11,6.57-11.78c4.26-1.66,8.81-2.6,13.73-2.75h1.08c0.36,0,0.65-0.14,1.01-0.29
				h43.27V276.29z"/>
			<path d="M1338.89,228.4c-8.8-5.9-19.7-8.93-32.73-9.11l-33.25,0.27c-5.1,0-9.59-1.14-13.46-3.44c-3.87-2.28-5.1-6.5-3.69-12.66
				c0.88-3.34,2.77-5.63,5.67-6.86c2.9-1.23,5.94-1.93,9.1-2.11c1.41,0,2.68,0,3.83,0c1.14,0,2.33,0,3.56,0c0.53,0,1.01,0,1.45,0
				c0.44,0,0.92-0.08,1.45-0.26h64.92v-29.03l-78.91,0.26c-14.96,0-26.92,3.34-35.89,10.03c-8.97,6.69-13.37,18.12-13.2,34.31
				c0.17,17.24,4.53,27.97,13.06,32.19c8.53,4.23,20.19,6.25,34.97,6.07l31.67,0.27c0.53,0,1.06,0,1.58,0c0.53,0,1.05,0,1.58,0
				c4.05,0.35,7.83,1.41,11.35,3.17c3.52,1.76,5.28,5.19,5.28,10.29c0,5.45-1.84,9.06-5.54,10.82c-3.69,1.76-7.74,2.73-12.14,2.91
				c-0.36,0-0.71,0-1.05,0c-0.36,0-0.71-0.09-1.06-0.27h-77.32v29.03h94.74c12.31,0,21.77-4.62,28.37-13.86
				c6.6-9.24,9.81-19.48,9.63-30.75c0-0.17,0-0.3,0-0.4c0-0.08,0-0.22,0-0.4C1352.34,244.46,1347.68,234.29,1338.89,228.4z"/>
		</g>
		<g>
			<polygon points="675.61,354.36 695.35,354.36 695.35,345.99 675.61,345.99 675.61,337.53 709.43,337.53 709.43,329.17 
				664.57,329.17 664.57,373.01 709.83,373.01 709.83,363.87 675.61,363.87 			"/>
			<polygon points="741.46,329.17 730.43,329.17 730.43,373.01 773.54,373.01 773.54,363.87 741.46,363.87 			"/>
			<polygon points="801.37,354.36 821.11,354.36 821.11,345.99 801.37,345.99 801.37,337.53 835.19,337.53 835.19,329.17 
				790.34,329.17 790.34,373.01 835.59,373.01 835.59,363.87 801.37,363.87 			"/>
			<path d="M891.97,329.17h-25.53c-4.34,0-7.22,0.75-8.8,2.29c-1.58,1.56-2.34,4.29-2.34,8.36v22.54c0,4.1,0.77,6.84,2.35,8.37
				c1.58,1.53,4.46,2.28,8.79,2.28h25.53c4.3,0,7.17-0.75,8.77-2.28c1.59-1.54,2.37-4.28,2.37-8.37v-5.49l-11.04-2.3v9.31h-25.73
				v-25.98h25.73v8.18l11.04-1.74v-4.51c0-4.07-0.78-6.8-2.37-8.36C899.15,329.91,896.28,329.17,891.97,329.17z"/>
			<polygon points="916.19,337.89 935.81,337.89 935.81,373.01 946.84,373.01 946.84,337.89 966.55,337.89 966.55,329.17 
				916.19,329.17 			"/>
			<path d="M1014.01,356.84h4.05c3.54,0,6.14-0.72,7.73-2.1c1.66-1.44,2.46-3.68,2.46-6.72v-10.04c0-3.03-0.8-5.35-2.46-6.72
				c-1.59-1.44-4.12-2.1-7.73-2.1h-37.13v43.85h10.91v-16.18h8.67l17.05,16.04l0.14,0.14h16.04L1014.01,356.84z M991.83,348.46
				v-10.84h21.82c2.02,0,2.82,0.36,3.18,0.65c0.51,0.36,0.79,1.16,0.79,2.17v5.2c0,1.08-0.29,1.81-0.79,2.17
				c-0.36,0.29-1.16,0.65-3.18,0.65H991.83z"/>
			<path d="M1101.21,331.48c-1.59-1.59-4.41-2.31-8.81-2.31h-31.43c-4.33,0-7.22,0.72-8.81,2.31c-1.59,1.52-2.38,4.26-2.38,8.31
				v22.54c0,4.12,0.79,6.86,2.38,8.38c1.59,1.52,4.48,2.31,8.81,2.31h31.43c4.33,0,7.22-0.8,8.81-2.31
				c1.59-1.52,2.38-4.26,2.38-8.38v-22.54C1103.59,335.74,1102.8,333,1101.21,331.48z M1092.54,363.85h-31.72v-25.94h31.72V363.85z"
				/>
			<path d="M1168.01,352.16c0,0.55,0.02,1.33,0.08,2.33c0.04,0.77,0.11,1.94,0.22,3.52c-0.37-0.39-0.74-0.76-1.12-1.13
				c-0.83-0.78-1.75-1.59-2.74-2.39l-30.25-25.33h-7.54v43.84h10.03v-23.64c0-0.87-0.04-1.9-0.11-3.09
				c-0.04-0.69-0.09-1.42-0.16-2.16c0.17,0.17,0.34,0.34,0.51,0.5c0.57,0.55,1.23,1.16,2.01,1.85l31.39,26.41l0.15,0.13h7.54v-43.84
				h-10.02V352.16z"/>
			<rect x="1202.07" y="329.17" width="11.04" height="43.84"/>
			<path d="M1272.96,329.17h-25.53c-4.34,0-7.22,0.75-8.79,2.29c-1.58,1.56-2.35,4.29-2.35,8.36v22.54c0,4.1,0.77,6.84,2.35,8.37
				c1.58,1.53,4.46,2.28,8.79,2.28h25.53c4.3,0,7.17-0.75,8.77-2.28c1.59-1.54,2.37-4.28,2.37-8.37v-5.49l-11.04-2.3v9.31h-25.74
				v-25.98h25.74v8.18l11.04-1.74v-4.51c0-4.07-0.78-6.8-2.37-8.36C1280.14,329.91,1277.27,329.17,1272.96,329.17z"/>
			<path d="M1350.5,348.13c-1.59-1.54-4.48-2.3-8.85-2.3h-26.12v-8.1h26.91v4.99l9.87-2.31v-1.33c0-3.64-0.83-6.25-2.46-7.72
				c-1.64-1.48-4.48-2.2-8.68-2.2h-24.27c-4.34,0-7.22,0.75-8.8,2.29c-1.58,1.56-2.34,4.29-2.34,8.36v4.74
				c0,4.07,0.77,6.8,2.35,8.35c1.58,1.54,4.46,2.3,8.79,2.3h26.11v8.66h-29.14v-5.17l-9.43,1.95l-0.43,0.08v1.62
				c0,4.07,0.78,6.8,2.37,8.35c1.6,1.54,4.49,2.3,8.85,2.3h26.42c4.36,0,7.26-0.75,8.85-2.3c1.6-1.55,2.37-4.29,2.37-8.35v-5.87
				C1352.87,352.47,1352.07,349.65,1350.5,348.13z"/>
		</g>
	</g>
	<g>
		<path d="M1316.42,96.76v6.43h16.54v29.62h8.38v-29.62h16.62v-6.43H1316.42z"/>
		<path d="M1411.28,96.76l-16.54,21.82l-16.98-21.82h-6.79v36.05h6.79v-22.25c0-0.58-0.07-1.16-0.07-1.81
			c-0.07-0.58-0.07-1.3-0.14-2.02c0.22,0.58,0.51,1.16,0.87,1.73c0.36,0.65,0.79,1.23,1.23,1.95l13.58,18.06h1.66l13.58-17.99
			c0.22-0.43,0.58-0.87,0.87-1.52c0.36-0.58,0.79-1.37,1.23-2.31c-0.07,0.87-0.14,1.59-0.22,2.24c-0.07,0.65-0.07,1.23-0.07,1.66
			v22.25h7.73V96.76H1411.28z"/>
	</g>
</g>
</svg>
