<svg version="1.1" id="Layer_1" xmlns="http://www.w3.org/2000/svg" x="0" y="0" viewBox="0 0 32 32" style="enable-background:new 0 0 32 32" xml:space="preserve"><style>.st0{fill:#fff}</style><circle cx="16" cy="16" r="16"/><path class="st0" d="M9.19 12.95c-.44.47-.69 1.13-.74 1.98l6.72-.02v2.01H8.44c0 .41.05.8.14 1.17.09.38.28.72.55 1.03.25.29.54.47.88.54.34.07.68.1 1.04.1h.14l3.99-.02v2.01h-4.1c-.65 0-1.28-.06-1.89-.18-.61-.12-1.18-.39-1.71-.82-.64-.53-1.09-1.17-1.35-1.92s-.4-1.53-.42-2.32c-.01-.17-.01-.34-.01-.5.01-.16.01-.32.02-.48.12-1.82.61-3.16 1.49-4.02.87-.86 2.18-1.29 3.93-1.29l4.03-.02v2.01h-3.99c-.88.04-1.55.28-1.99.74zM16.34 12.26v-2.01h9.96v2.01h-3.74v9.51h-2.51v-9.51h-3.71z"/></svg>