<svg version="1.1" id="Layer_1" xmlns="http://www.w3.org/2000/svg" x="0" y="0" viewBox="0 0 1418 441.24" style="enable-background:new 0 0 1418 441.24" xml:space="preserve"><style>.st0{fill:#fff}.st1{fill:#2563eb}</style><path d="M816.13 88.16C788.46-9.3 584.01-28.95 359.54 44.24 299.5 63.82 244.17 88.02 195.76 114.9l30.27-.07v32.94h-65.45c-14.59.22-25.5 4.12-32.73 11.78-7.22 7.66-11.27 18.5-12.14 32.58l110.32-.29v33.02h-110.6c0 6.65.72 13.08 2.24 19.22 1.52 6.21 4.55 11.85 9.1 16.91 4.05 4.77 8.89 7.73 14.38 8.89 5.56 1.16 11.2 1.66 17.05 1.66h2.38l65.45-.22v32.94H158.7c-10.69 0-21.1-.94-30.99-2.89-9.97-1.95-19.29-6.43-28.1-13.44-10.55-8.6-17.99-19.15-22.18-31.57-4.19-12.35-6.5-25.07-6.86-38.07-.14-2.82-.22-5.56-.14-8.24.07-1.95.22-3.83.29-5.78C16.96 255.7-9.48 308.65 3.09 353.08 30.76 450.54 235.21 470.19 459.75 397c91.53-29.84 172.23-70.44 233.93-114.8V148.05H632.7v-33.02h163.63v33.02h-61.55v101.58c63-55.27 95-113.35 81.35-161.47zM382.01 304.25h-98.76c-14.23 0-25.14-3.9-32.73-11.7-7.51-7.87-10.98-18.71-10.26-32.58 1.23-16.76 7.08-27.53 17.7-32.51 10.55-4.91 23.12-7.37 37.71-7.37l48.26-.29c.58-11.41-2.38-18.57-8.81-21.31-6.43-2.82-14.52-4.26-24.42-4.26l-61.19-.29v-28.75h75.21c8.09.22 15.89 1.16 23.33 2.82 7.51 1.66 14.23 5.49 20.23 11.49 5.06 4.91 8.6 10.69 10.62 17.41 2.02 6.65 3.11 13.51 3.11 20.59v86.75zm255.46-139.08v29.04h-38.8v54.91c-.22 13.87 2.96 21.96 9.46 24.27 6.5 2.31 15.46 3.4 26.95 3.4h2.38v27.45h-33.52c-13.94 0-24.42-3.83-31.43-11.56-7.08-7.8-10.55-18.35-10.55-31.71v-66.75H462.2c-.51.22-1.01.29-1.44.29h-8.89c-3.11.14-6.14.87-9.1 2.1-2.89 1.23-4.77 3.54-5.63 6.86-1.44 6.14-.14 10.4 3.68 12.64 3.9 2.31 8.38 3.47 13.44 3.47l33.3-.29c13 .22 23.91 3.25 32.73 9.1 8.74 5.92 13.44 16.04 13.94 30.49v.79c.22 11.27-3.03 21.53-9.61 30.78-6.57 9.18-16.04 13.8-28.39 13.8h-94.71v-28.97h77.3c.36.14.72.22 1.08.22h1.01c4.41-.14 8.45-1.16 12.14-2.89 3.76-1.73 5.56-5.35 5.56-10.84 0-5.06-1.73-8.53-5.27-10.26-3.54-1.81-7.3-2.82-11.34-3.18h-3.18l-31.64-.29c-14.81.22-26.44-1.81-34.97-6.07-8.52-4.19-12.93-14.95-13.08-32.15-.22-16.18 4.19-27.67 13.22-34.32 8.96-6.72 20.88-10.04 35.83-10.04l87.92-.14v-.14h25.86v-50.35h36.7v50.35h38.81z"/><path d="M299.9 247.8h-1.05c-4.93.18-9.5 1.1-13.73 2.77-4.22 1.67-6.42 5.59-6.6 11.74-.35 6.86 1.54 10.91 5.68 12.14 4.13 1.23 8.84 1.94 14.12 2.11v-.26h45.92v-28.76h-43.28c-.36.17-.71.26-1.06.26zM903.11 168.79l13.8 18.57v-18.57h-13.8zm0 0 13.8 18.57v-18.57h-13.8z"/><path d="m1008.22 235.69 50.64 68.56h-41.4l-94.42-127.22-6.14-8.24h-13.8l6.14 8.24 7.66 10.33v6.86h-48.55c-10.19.22-18.42 1.73-24.56 4.62-3.83 1.81-6.5 5.27-8.09 10.4-.94 3.18-1.52 6.94-1.66 11.34l82.86-.22v29.04h-82.86c.14 4.7.65 8.6 1.59 11.85 1.52 5.27 4.05 8.67 7.66 10.26 5.78 2.67 14.09 3.97 24.78 3.97l48.84-.22v26.15l31.93-43.35 6.79-9.25 21.31 28.61-19.65 26.8H863.3c-9.83 0-19.36-1.16-28.61-3.54s-17.34-7.37-24.42-14.88c-5.63-6.21-9.68-13.22-12.28-21.17-2.53-7.88-4.05-15.97-4.62-24.27v-8.81c0-1.16.14-2.31.29-3.54.51-7.95 2.1-15.75 4.62-23.41 1.95-5.85 4.77-11.2 8.31-16.04.07 0 .14-.07.22-.14 1.01-1.44 2.24-2.89 3.47-4.26 7.08-7.73 15.17-12.79 24.42-15.17 9.25-2.38 18.78-3.54 28.61-3.54l51-.29h42.7l28.25 39.73 1.59 2.24 68.13-93.41 8.67-11.85h42.26l-97.69 133.82z"/><path d="M1197.58 196.89c-2.02-6.72-5.64-12.5-10.69-17.41-6-6-12.72-9.83-20.23-11.49-7.44-1.66-15.24-2.6-23.33-2.82h-75.21v28.75l61.19.29c9.9 0 17.99 1.44 24.42 4.26 6.43 2.75 9.39 9.9 8.89 21.31l-48.33.29c-14.59 0-27.16 2.46-37.71 7.37-10.55 4.98-16.47 15.75-17.7 32.51-.72 13.87 2.75 24.71 10.33 32.58 7.51 7.8 18.42 11.7 32.73 11.7h98.69v-86.77c-.01-7.06-1.03-13.92-3.05-20.57zm-34.75 79.4h-45.88v.29c-5.27-.22-9.97-.87-14.16-2.1-4.12-1.23-6-5.27-5.64-12.14.14-6.21 2.38-10.11 6.57-11.78 4.26-1.66 8.81-2.6 13.73-2.75h1.08c.36 0 .65-.14 1.01-.29h43.27v28.77zM1338.89 228.4c-8.8-5.9-19.7-8.93-32.73-9.11l-33.25.27c-5.1 0-9.59-1.14-13.46-3.44-3.87-2.28-5.1-6.5-3.69-12.66.88-3.34 2.77-5.63 5.67-6.86 2.9-1.23 5.94-1.93 9.1-2.11h8.84c.44 0 .92-.08 1.45-.26h64.92V165.2l-78.91.26c-14.96 0-26.92 3.34-35.89 10.03-8.97 6.69-13.37 18.12-13.2 34.31.17 17.24 4.53 27.97 13.06 32.19 8.53 4.23 20.19 6.25 34.97 6.07l31.67.27h3.16c4.05.35 7.83 1.41 11.35 3.17 3.52 1.76 5.28 5.19 5.28 10.29 0 5.45-1.84 9.06-5.54 10.82-3.69 1.76-7.74 2.73-12.14 2.91h-1.05c-.36 0-.71-.09-1.06-.27h-77.32v29.03h94.74c12.31 0 21.77-4.62 28.37-13.86 6.6-9.24 9.81-19.48 9.63-30.75v-.8c-.52-14.41-5.18-24.58-13.97-30.47zM675.61 354.36h19.74v-8.37h-19.74v-8.46h33.82v-8.36h-44.86v43.84h45.26v-9.14h-34.22zM741.46 329.17h-11.03v43.84h43.11v-9.14h-32.08zM801.37 354.36h19.74v-8.37h-19.74v-8.46h33.82v-8.36h-44.85v43.84h45.25v-9.14h-34.22zM891.97 329.17h-25.53c-4.34 0-7.22.75-8.8 2.29-1.58 1.56-2.34 4.29-2.34 8.36v22.54c0 4.1.77 6.84 2.35 8.37 1.58 1.53 4.46 2.28 8.79 2.28h25.53c4.3 0 7.17-.75 8.77-2.28 1.59-1.54 2.37-4.28 2.37-8.37v-5.49l-11.04-2.3v9.31h-25.73V337.9h25.73v8.18l11.04-1.74v-4.51c0-4.07-.78-6.8-2.37-8.36-1.59-1.56-4.46-2.3-8.77-2.3zM916.19 337.89h19.62v35.12h11.03v-35.12h19.71v-8.72h-50.36zM1014.01 356.84h4.05c3.54 0 6.14-.72 7.73-2.1 1.66-1.44 2.46-3.68 2.46-6.72v-10.04c0-3.03-.8-5.35-2.46-6.72-1.59-1.44-4.12-2.1-7.73-2.1h-37.13v43.85h10.91v-16.18h8.67l17.05 16.04.14.14h16.04l-19.73-16.17zm-22.18-8.38v-10.84h21.82c2.02 0 2.82.36 3.18.65.51.36.79 1.16.79 2.17v5.2c0 1.08-.29 1.81-.79 2.17-.36.29-1.16.65-3.18.65h-21.82zM1101.21 331.48c-1.59-1.59-4.41-2.31-8.81-2.31h-31.43c-4.33 0-7.22.72-8.81 2.31-1.59 1.52-2.38 4.26-2.38 8.31v22.54c0 4.12.79 6.86 2.38 8.38 1.59 1.52 4.48 2.31 8.81 2.31h31.43c4.33 0 7.22-.8 8.81-2.31 1.59-1.52 2.38-4.26 2.38-8.38v-22.54c0-4.05-.79-6.79-2.38-8.31zm-8.67 32.37h-31.72v-25.94h31.72v25.94zM1168.01 352.16c0 .55.02 1.33.08 2.33.04.77.11 1.94.22 3.52-.37-.39-.74-.76-1.12-1.13-.83-.78-1.75-1.59-2.74-2.39l-30.25-25.33h-7.54V373h10.03v-23.64c0-.87-.04-1.9-.11-3.09-.04-.69-.09-1.42-.16-2.16.17.17.34.34.51.5.57.55 1.23 1.16 2.01 1.85l31.39 26.41.15.13h7.54v-43.84H1168v23zM1202.07 329.17h11.04v43.84h-11.04zM1272.96 329.17h-25.53c-4.34 0-7.22.75-8.79 2.29-1.58 1.56-2.35 4.29-2.35 8.36v22.54c0 4.1.77 6.84 2.35 8.37 1.58 1.53 4.46 2.28 8.79 2.28h25.53c4.3 0 7.17-.75 8.77-2.28 1.59-1.54 2.37-4.28 2.37-8.37v-5.49l-11.04-2.3v9.31h-25.74V337.9h25.74v8.18l11.04-1.74v-4.51c0-4.07-.78-6.8-2.37-8.36-1.59-1.56-4.46-2.3-8.77-2.3zM1350.5 348.13c-1.59-1.54-4.48-2.3-8.85-2.3h-26.12v-8.1h26.91v4.99l9.87-2.31v-1.33c0-3.64-.83-6.25-2.46-7.72-1.64-1.48-4.48-2.2-8.68-2.2h-24.27c-4.34 0-7.22.75-8.8 2.29-1.58 1.56-2.34 4.29-2.34 8.36v4.74c0 4.07.77 6.8 2.35 8.35 1.58 1.54 4.46 2.3 8.79 2.3h26.11v8.66h-29.14v-5.17l-9.43 1.95-.43.08v1.62c0 4.07.78 6.8 2.37 8.35 1.6 1.54 4.49 2.3 8.85 2.3h26.42c4.36 0 7.26-.75 8.85-2.3 1.6-1.55 2.37-4.29 2.37-8.35v-5.87c0-4-.8-6.82-2.37-8.34zM1316.42 96.76v6.43h16.54v29.62h8.38v-29.62h16.62v-6.43h-41.54zM1411.28 96.76l-16.54 21.82-16.98-21.82h-6.79v36.05h6.79v-22.25c0-.58-.07-1.16-.07-1.81-.07-.58-.07-1.3-.14-2.02.22.58.51 1.16.87 1.73.36.65.79 1.23 1.23 1.95l13.58 18.06h1.66l13.58-17.99c.22-.43.58-.87.87-1.52.36-.58.79-1.37 1.23-2.31-.07.87-.14 1.59-.22 2.24-.07.65-.07 1.23-.07 1.66v22.25h7.73V96.76h-6.73z"/></svg>